<svg width="60" height="24" viewBox="0 0 60 24" fill="none" xmlns="http://www.w3.org/2000/svg">
<rect x="60" y="23" width="1" height="60" transform="rotate(90 60 23)" fill="#9DA4BD" fill-opacity="0.6"/>
<path d="M7.22949 12H5.94043V8.46045L2.32031 8.46045L2.32031 12H1.03662L1.03662 4.14746H2.32031L2.32031 7.35938L5.94043 7.35938V4.14746H7.22949L7.22949 12ZM13.9799 12L13.7274 11.1729H13.6845C13.398 11.5345 13.1098 11.7816 12.8197 11.9141C12.5297 12.043 12.1573 12.1074 11.7025 12.1074C11.1189 12.1074 10.6623 11.9499 10.3329 11.6348C10.0071 11.3197 9.84414 10.8739 9.84414 10.2974C9.84414 9.68506 10.0715 9.22314 10.5263 8.91162C10.981 8.6001 11.6739 8.43001 12.6049 8.40137L13.6308 8.36914V8.05225C13.6308 7.67269 13.5412 7.38981 13.3622 7.20361C13.1868 7.01383 12.9128 6.91895 12.5404 6.91895C12.2361 6.91895 11.9442 6.9637 11.6649 7.05322C11.3856 7.14274 11.1171 7.24837 10.8593 7.37012L10.4511 6.46777C10.7733 6.29948 11.126 6.17236 11.5092 6.08643C11.8923 5.99691 12.254 5.95215 12.5941 5.95215C13.3497 5.95215 13.919 6.11686 14.3021 6.44629C14.6889 6.77572 14.8822 7.29313 14.8822 7.99854V12H13.9799ZM12.1 11.1406C12.5583 11.1406 12.9254 11.0135 13.2011 10.7593C13.4804 10.5015 13.62 10.1416 13.62 9.67969V9.16406L12.8573 9.19629C12.2629 9.21777 11.8297 9.31803 11.5575 9.49707C11.289 9.67253 11.1547 9.94287 11.1547 10.3081C11.1547 10.5731 11.2335 10.779 11.391 10.9258C11.5486 11.069 11.7849 11.1406 12.1 11.1406ZM19.0545 8.43359C19.631 8.43359 20.0553 8.37093 20.3274 8.24561C20.5996 8.1167 20.7356 7.91976 20.7356 7.65479C20.7356 7.17139 20.306 6.92969 19.4466 6.92969C18.8737 6.92969 18.2882 7.05859 17.6902 7.31641L17.282 6.37646C17.9731 6.09359 18.7358 5.95215 19.5701 5.95215C20.3077 5.95215 20.8807 6.08822 21.2889 6.36035C21.6971 6.62891 21.9012 7.01563 21.9012 7.52051C21.9012 8.18652 21.5198 8.62337 20.7571 8.83105V8.87402C21.2334 9.00293 21.5735 9.18734 21.7776 9.42725C21.9853 9.66715 22.0892 9.96436 22.0892 10.3188C22.0892 10.8631 21.8493 11.2982 21.3694 11.624C20.8932 11.9463 20.2272 12.1074 19.3714 12.1074C18.4368 12.1074 17.7225 11.9839 17.2283 11.7368L17.2283 10.6465C17.8836 10.9544 18.5621 11.1084 19.264 11.1084C19.7688 11.1084 20.1574 11.0386 20.4295 10.8989C20.7052 10.7557 20.8431 10.5391 20.8431 10.249C20.8431 9.95182 20.7052 9.7334 20.4295 9.59375C20.1538 9.4541 19.7277 9.38428 19.1512 9.38428H18.4261V8.43359H19.0545ZM28.2756 12L28.0231 11.1729H27.9802C27.6937 11.5345 27.4055 11.7816 27.1154 11.9141C26.8254 12.043 26.453 12.1074 25.9982 12.1074C25.4146 12.1074 24.958 11.9499 24.6286 11.6348C24.3028 11.3197 24.1398 10.8739 24.1398 10.2974C24.1398 9.68506 24.3672 9.22314 24.822 8.91162C25.2767 8.6001 25.9696 8.43001 26.9006 8.40137L27.9265 8.36914V8.05225C27.9265 7.67269 27.8369 7.38981 27.6579 7.20361C27.4825 7.01383 27.2085 6.91895 26.8361 6.91895C26.5318 6.91895 26.2399 6.9637 25.9606 7.05322C25.6813 7.14274 25.4128 7.24837 25.155 7.37012L24.7468 6.46777C25.069 6.29948 25.4217 6.17236 25.8049 6.08643C26.188 5.99691 26.5497 5.95215 26.8898 5.95215C27.6454 5.95215 28.2147 6.11686 28.5979 6.44629C28.9846 6.77572 29.1779 7.29313 29.1779 7.99854L29.1779 12H28.2756ZM26.3957 11.1406C26.854 11.1406 27.2211 11.0135 27.4968 10.7593C27.7761 10.5015 27.9157 10.1416 27.9157 9.67969V9.16406L27.153 9.19629C26.5586 9.21777 26.1254 9.31803 25.8532 9.49707C25.5847 9.67253 25.4504 9.94287 25.4504 10.3081C25.4504 10.5731 25.5292 10.779 25.6867 10.9258C25.8443 11.069 26.0806 11.1406 26.3957 11.1406ZM37.7384 14.1001H36.5621V12H32.4908V14.1001H31.3253L31.3253 11.0225H31.8087C32.2312 10.4173 32.566 9.68685 32.8131 8.83105C33.0637 7.97168 33.2123 7.04785 33.2589 6.05957L36.8683 6.05957V11.0225H37.7384V14.1001ZM35.6275 11.0225V7.02637H34.3492C34.2812 7.764 34.138 8.49089 33.9195 9.20703C33.7047 9.92318 33.4415 10.5283 33.13 11.0225H35.6275Z" fill="#9DA4BD" fill-opacity="0.6"/>
</svg>
