<svg width="60" height="24" viewBox="0 0 60 24" fill="none" xmlns="http://www.w3.org/2000/svg">
<rect x="60" y="23" width="1" height="60" transform="rotate(90 60 23)" fill="white"/>
<path d="M14.9419 4.14746L17.2729 4.14746C18.3543 4.14746 19.1349 4.30501 19.6147 4.62012C20.0981 4.93522 20.3398 5.43294 20.3398 6.11328C20.3398 6.57161 20.2217 6.95296 19.9854 7.25732C19.749 7.56169 19.4089 7.75326 18.9648 7.83203V7.88574C19.5163 7.98958 19.9209 8.19548 20.1787 8.50342C20.4401 8.80778 20.5708 9.22135 20.5708 9.74414C20.5708 10.4495 20.3237 11.0028 19.8296 11.4038C19.339 11.8013 18.6551 12 17.7778 12H14.9419L14.9419 4.14746ZM16.2256 7.3916H17.4609C17.998 7.3916 18.3901 7.30745 18.6372 7.13916C18.8843 6.96729 19.0078 6.67725 19.0078 6.26904C19.0078 5.90023 18.8735 5.63346 18.605 5.46875C18.34 5.30404 17.9175 5.22168 17.3374 5.22168H16.2256V7.3916ZM16.2256 8.43359V10.9204H17.5898C18.127 10.9204 18.5316 10.8184 18.8037 10.6143C19.0794 10.4066 19.2173 10.0807 19.2173 9.63672C19.2173 9.22852 19.0776 8.92594 18.7983 8.729C18.519 8.53206 18.0947 8.43359 17.5254 8.43359H16.2256ZM28.3632 6.05957V12H27.0956V7.05859L24.4315 7.05859V12H23.1693V6.05957L28.3632 6.05957ZM33.8675 12.1074C32.9437 12.1074 32.2203 11.8389 31.6976 11.3018C31.1784 10.7611 30.9188 10.0181 30.9188 9.07275C30.9188 8.10238 31.1604 7.33968 31.6438 6.78467C32.1272 6.22965 32.7915 5.95215 33.6365 5.95215C34.4207 5.95215 35.0402 6.19027 35.4949 6.6665C35.9497 7.14274 36.1771 7.79801 36.1771 8.63232V9.31445H32.2186C32.2365 9.89095 32.3922 10.335 32.6858 10.6465C32.9795 10.9544 33.393 11.1084 33.9266 11.1084C34.2775 11.1084 34.6033 11.0762 34.9041 11.0117C35.2085 10.9437 35.5343 10.8327 35.8816 10.6787V11.7046C35.5737 11.8514 35.2622 11.9552 34.9471 12.0161C34.632 12.077 34.2721 12.1074 33.8675 12.1074ZM33.6365 6.9082C33.2355 6.9082 32.9132 7.03532 32.6697 7.28955C32.4298 7.54378 32.2866 7.91439 32.24 8.40137H34.9363C34.9292 7.91081 34.811 7.5402 34.5818 7.28955C34.3527 7.03532 34.0376 6.9082 33.6365 6.9082ZM41.7243 12.1074C40.9724 12.1074 40.3887 11.8371 39.9733 11.2964H39.8981C39.9483 11.7977 39.9733 12.1021 39.9733 12.2095V14.6426H38.7111V6.05957H39.7316C39.7603 6.17057 39.8194 6.43555 39.9089 6.85449H39.9733C40.3672 6.25293 40.958 5.95215 41.7458 5.95215C42.487 5.95215 43.0635 6.2207 43.4753 6.75781C43.8907 7.29492 44.0983 8.04867 44.0983 9.01904C44.0983 9.98942 43.8871 10.7467 43.4646 11.291C43.0456 11.8353 42.4655 12.1074 41.7243 12.1074ZM41.4182 6.9834C40.9169 6.9834 40.5498 7.13021 40.3171 7.42383C40.0879 7.71745 39.9733 8.18652 39.9733 8.83105V9.01904C39.9733 9.74235 40.0879 10.2669 40.3171 10.5928C40.5463 10.915 40.9204 11.0762 41.4396 11.0762C41.8765 11.0762 42.2131 10.8971 42.4494 10.5391C42.6857 10.181 42.8039 9.67074 42.8039 9.0083C42.8039 8.34229 42.6857 7.83919 42.4494 7.49902C42.2167 7.15527 41.8729 6.9834 41.4182 6.9834ZM49.2589 12.1074C48.3351 12.1074 47.6118 11.8389 47.089 11.3018C46.5698 10.7611 46.3102 10.0181 46.3102 9.07275C46.3102 8.10238 46.5519 7.33968 47.0353 6.78467C47.5187 6.22965 48.1829 5.95215 49.0279 5.95215C49.8121 5.95215 50.4316 6.19027 50.8863 6.6665C51.3411 7.14274 51.5685 7.79801 51.5685 8.63232V9.31445H47.61C47.6279 9.89095 47.7836 10.335 48.0772 10.6465C48.3709 10.9544 48.7844 11.1084 49.318 11.1084C49.6689 11.1084 49.9947 11.0762 50.2955 11.0117C50.5999 10.9437 50.9257 10.8327 51.273 10.6787V11.7046C50.9651 11.8514 50.6536 11.9552 50.3385 12.0161C50.0234 12.077 49.6635 12.1074 49.2589 12.1074ZM49.0279 6.9082C48.6269 6.9082 48.3046 7.03532 48.0611 7.28955C47.8212 7.54378 47.678 7.91439 47.6314 8.40137H50.3277C50.3206 7.91081 50.2024 7.5402 49.9732 7.28955C49.7441 7.03532 49.429 6.9082 49.0279 6.9082ZM59.8013 14.1001H58.625V12H54.5537V14.1001H53.3882V11.0225H53.8716C54.2941 10.4173 54.6289 9.68685 54.876 8.83105C55.1266 7.97168 55.2752 7.04785 55.3218 6.05957H58.9312V11.0225H59.8013V14.1001ZM57.6904 11.0225V7.02637H56.4121C56.3441 7.764 56.2008 8.49089 55.9824 9.20703C55.7676 9.92318 55.5044 10.5283 55.1929 11.0225H57.6904Z" fill="white"/>
</svg>
